<svg xmlns="http://www.w3.org/2000/svg" viewBox="0 0 512.001 512.001" width="512" height="512"><path d="M504.501 421.9a7.5 7.5 0 0 0-7.5 7.5v50.113c0 .696-.566 1.263-1.263 1.263H467.24V371.199c0-4.142-3.357-7.5-7.5-7.5s-7.5 3.358-7.5 7.5v109.578h-55.07l14.905-16.397c2.302-2.533 3.387-6.13 2.904-9.623a8.671 8.671 0 0 0-.035-.224l-16.755-98.996 3.083-4.641.803.57a11.728 11.728 0 0 0 9.647 1.818 11.73 11.73 0 0 0 7.656-6.146v-.001l17.049-34.171 38.945 15.083c1.537.668 21.625 9.879 21.625 33.845v32.504a7.501 7.501 0 0 0 15.001.001v-32.504c0-34.61-29.685-47.211-30.948-47.731a4.252 4.252 0 0 0-.143-.057l-66.317-25.684v-13.66c10.352-8.328 17.622-20.331 19.805-34.014 5.163-.648 9.953-2.715 13.928-6.134a25.781 25.781 0 0 0 8.971-19.568 25.79 25.79 0 0 0-5.824-16.337v-20.238c0-39.606-32.222-71.827-71.826-71.827-17.781 0-34.061 6.508-46.618 17.25a25.782 25.782 0 0 0-5.804-15.607V88.051c0-39.606-32.222-71.827-71.826-71.827-39.606 0-71.827 32.222-71.827 71.827v20.765c-3.605 4.308-5.622 9.502-5.8 15.015a71.505 71.505 0 0 0-28.288-14.816c-4.012-1.056-8.109 1.337-9.164 5.343s1.337 8.109 5.343 9.164c24.913 6.56 42.313 29.157 42.313 54.949v11.217a67.132 67.132 0 0 0-1.404-.252c-.102-2.117-.638-3.41-1.792-5.07-1.92-2.759-5.368-6.196-16.458-18.116a11.856 11.856 0 0 0-15.196-1.852c-18.995 12.408-42.072 18.732-63.488 17.475-6.976-.409-11.333 2.656-13.19 7.679-.166.027-2.021.401-2.124.426v-11.507c0-24.869 16.618-47.242 40.411-54.409a7.501 7.501 0 1 0-4.327-14.363c-14.47 4.358-27.477 13.432-36.622 25.548-9.463 12.534-14.464 27.481-14.464 43.225v20.766c-3.778 4.514-5.821 10-5.821 15.809 0 12.84 9.46 24.038 22.938 25.708 2.208 13.363 9.458 26.178 20.9 34.891v12.781l-66.243 25.682a8.255 8.255 0 0 0-.141.056C29.686 314.684 0 327.284 0 361.894v117.619c0 8.969 7.296 16.264 16.265 16.264h230.971a16.16 16.16 0 0 0 8.765-2.585 16.153 16.153 0 0 0 8.765 2.585h230.972c8.968 0 16.264-7.295 16.264-16.264V429.4a7.501 7.501 0 0 0-7.501-7.5zM75.702 225.258c-4.397-1.596-7.206-5.663-7.206-10.213 0-4.413 3.2-8.039 7.206-9.76v19.973zm346.677 82.267l-14.722 29.506-16.585-11.78 18.408-22.721 12.899 4.995zm-42.149 7.278l-19.397-23.943v-7.195c6.305 2.18 13.097 3.186 19.49 3.188h.005c6.61-.001 13.302-1.256 19.262-3.499v7.552l-19.36 23.897zm8.806 27.403l-2.759 4.153h-12.091l-2.759-4.153 8.805-6.253 8.804 6.253zM255.981 224.381l-19.397-23.943v-7.195c6.28 2.171 13.065 3.186 19.49 3.188h.005c6.598 0 13.289-1.251 19.262-3.498v7.551l-19.36 23.897zm8.805 27.405l-2.759 4.153h-12.091l-2.759-4.153 8.805-6.253 8.804 6.253zm-67.868-102.172c1.226.334 2.486.561 3.765.719 2.208 13.363 9.458 26.178 20.9 34.891v12.781l-15.301 5.931a25.706 25.706 0 0 0-3.312-5.227v-20.237a71.65 71.65 0 0 0-6.052-28.858zm98.918-7.942c0 21.953-17.908 39.756-39.757 39.756-24.651 0-41.125-19.105-41.125-39.756V106.54c23.683.948 48.286-6.071 68.401-18.591 6.763 7.252 10.787 11.465 12.482 13.421l-.001 40.302zm14.311 8.656a26.983 26.983 0 0 0 3.745-.721 71.392 71.392 0 0 0-6.076 28.865v20.765a25.593 25.593 0 0 0-2.966 4.383l-14.508-5.618v-13.66c10.351-8.329 17.622-20.332 19.805-34.014zm-83.442 61.792l18.412 22.726-12.556 8.918-.019.015-3.985 2.831-14.723-29.505 12.871-4.985zm46.538 14.784l11.987-14.796 12.899 4.995-14.721 29.507-3.994-2.836-.012-.01-12.579-8.935 6.42-7.925zm3.78 33.571l.803.57a11.725 11.725 0 0 0 9.647 1.818 11.73 11.73 0 0 0 7.656-6.146v-.001l12.658-25.369c4.349 5.36 10.639 8.62 17.117 9.429 2.288 14.34 10.039 26.578 20.929 34.87v12.78l-63.764 24.721-8.13-48.03 3.084-4.642zm73.931 42.066l18.412 22.726-16.56 11.764-14.723-29.505 12.871-4.985zm69.13-70.447c.002 21.417-17.391 39.756-39.756 39.756-25.492 0-41.125-19.966-41.125-39.756v-35.132c23.514.939 48.149-5.987 68.4-18.591 6.763 7.252 10.787 11.465 12.482 13.421l-.001 40.302zm22.21-17.048c0 4.558-2.818 8.617-7.206 10.212v-20.403c4.536 1.652 7.206 5.797 7.206 10.191zm-119.477-36.575c0-31.334 25.493-56.826 56.826-56.826 31.334 0 56.825 25.493 56.825 56.826v11.217a51.376 51.376 0 0 0-1.404-.252c-.102-2.119-.641-3.415-1.792-5.07-1.971-2.831-5.381-6.209-16.458-18.116-3.868-4.152-10.246-5.087-15.196-1.852-18.48 12.072-41.828 18.891-64.045 17.448-6.241-.409-10.762 2.647-12.633 7.707-.167.027-2.019.401-2.124.426v-11.508zm1.385 26.815v19.962c-4.41-1.59-7.206-5.668-7.206-10.203-.001-4.413 3.197-8.037 7.206-9.759zm-6.159-80.661c0 3.158-1.367 6.145-3.75 8.194a11.099 11.099 0 0 1-3.456 2.017v-20.403c4.485 1.628 7.206 5.751 7.206 10.192zm-62.65-93.401c31.334 0 56.826 25.492 56.826 56.826v11.217a54.006 54.006 0 0 0-1.404-.252c-.111-2.297-.773-3.709-2.124-5.536-2.008-2.718-5.71-6.455-16.126-17.651a11.86 11.86 0 0 0-15.196-1.852c-19.516 12.75-43.191 18.955-64.65 17.418-5.25-.397-10.193 2.775-12.027 7.736-.167.027-2.02.401-2.124.426V88.051h-.001c0-31.335 25.493-56.827 56.826-56.827zm-55.442 83.64v19.973c-4.397-1.596-7.206-5.663-7.206-10.213 0-4.388 3.175-8.027 7.206-9.76zm-13.364 89.991c4.196 1.527 6.891 5.188 7.158 9.539.336 4.838-2.637 9.213-7.158 10.855v-20.394zm-.695 35.919c7.074-.885 13.567-4.613 17.825-10.348l13.118 26.29.001.001a11.722 11.722 0 0 0 7.655 6.146c3.293.823 6.816.193 9.647-1.818l.803-.57 3.083 4.641-8.127 48.017-63.804-24.711v-13.654h-.001c10.623-8.565 17.668-20.667 19.8-33.994zm-54.162 74.029l-19.397-23.943v-7.195c6.28 2.171 13.066 3.186 19.491 3.187h.004a55.423 55.423 0 0 0 19.262-3.498v7.552l-19.36 23.897zm8.806 27.403l-2.759 4.153h-12.091l-2.759-4.153 8.805-6.253 8.804 6.253zm20.443-39.676l12.9 4.996-14.722 29.505-3.994-2.836-.012-.01-12.579-8.934 18.407-22.721zm-70.276-70.436v-35.132c23.809.951 48.428-6.161 68.4-18.591 6.699 7.184 10.785 11.463 12.482 13.421v40.302c0 21.813-17.785 39.756-39.757 39.756-24.463 0-41.125-18.887-41.125-39.756zm11.752 70.447l18.412 22.726-12.556 8.918-.019.015-3.985 2.831-14.723-29.505 12.871-4.985zM59.763 480.778V371.199c0-4.142-3.357-7.5-7.5-7.5s-7.5 3.358-7.5 7.5v109.578H16.265a1.265 1.265 0 0 1-1.264-1.263v-117.62c0-24.089 20.297-33.271 21.611-33.839l38.921-15.089 17.051 34.171.001.001a11.722 11.722 0 0 0 7.656 6.146c3.293.823 6.816.193 9.647-1.818l.803-.57 3.083 4.641-16.755 98.996a8.043 8.043 0 0 0-.035.224c-.482 3.491.603 7.088 2.906 9.625l14.903 16.395h-55.03zm52.31-25.297l15.929-94.121h7.459l15.93 94.121-19.659 21.627-19.659-21.627zm136.426 24.032c0 .697-.566 1.264-1.263 1.264H218.74V371.199a7.5 7.5 0 0 0-7.5-7.5 7.5 7.5 0 0 0-7.5 7.5v109.578h-55.07l14.905-16.397c2.302-2.533 3.387-6.13 2.904-9.623a8.671 8.671 0 0 0-.035-.224l-16.755-98.996 3.083-4.641.803.57a11.742 11.742 0 0 0 17.304-4.328v-.001l17.049-34.17 38.945 15.083c11.352 4.938 21.625 17.673 21.625 33.844v117.619zM256 334.64c-3.107-5.006-7.243-9.638-12.229-13.591l8.481-50.109h7.459l8.485 50.135c-5.119 4.065-9.201 8.739-12.196 13.565zm52.262 146.138V371.199c0-4.142-3.357-7.5-7.5-7.5s-7.5 3.358-7.5 7.5v109.578h-28.497a1.265 1.265 0 0 1-1.264-1.263v-117.62c0-8.916 2.796-17.128 8.752-24.027 3.971-4.555 9.238-8.243 12.86-9.812l38.921-15.09 17.051 34.172.001.001a11.722 11.722 0 0 0 7.655 6.146c3.293.823 6.816.193 9.647-1.818l.803-.57 3.083 4.641-16.755 98.996a8.043 8.043 0 0 0-.035.224c-.482 3.491.603 7.088 2.906 9.625l14.903 16.395h-55.031zm52.31-25.296l15.93-94.121h7.459l15.93 94.121-19.66 21.627-19.659-21.627z" data-original="#000000" class="active-path" data-old_color="#89132c" fill="#89132c"/></svg>