<svg xmlns="http://www.w3.org/2000/svg" viewBox="0 0 334.877 334.877" width="512" height="512"><path d="M333.196 155.999h-16.067V82.09c0-17.719-14.415-32.134-32.134-32.134h-21.761L240.965 9.917a19.28 19.28 0 0 0-26.222-7.488l-85.464 47.526H33.815c-17.719 0-32.134 14.415-32.134 32.134v220.653c0 17.719 14.415 32.134 32.134 32.134h251.18c17.719 0 32.134-14.415 32.134-32.134V237.94h16.067v-81.941zm-48.201-93.19c9.897 0 17.982 7.519 19.068 17.14h-24.152l-9.525-17.14h14.609zm-63.999-49.146c3.014-1.69 7.07-.508 8.734 2.494l35.476 63.786H101.798l119.198-66.28zm83.279 289.079c0 10.63-8.651 19.281-19.281 19.281H33.815c-10.63 0-19.281-8.651-19.281-19.281V82.09c0-10.63 8.651-19.281 19.281-19.281h72.353L75.345 79.95H37.832c-3.554 0-6.427 2.879-6.427 6.427s2.873 6.427 6.427 6.427h266.443v63.201h-46.999c-21.826 0-39.589 17.764-39.589 39.589v2.764c0 21.826 17.764 39.589 39.589 39.589h46.999v64.795zm16.067-77.655h-63.066c-14.743 0-26.736-11.992-26.736-26.736v-2.764c0-14.743 11.992-26.736 26.736-26.736h63.066v56.236zm-43.381-27.59c0 7.841-6.35 14.19-14.19 14.19-7.841 0-14.19-6.35-14.19-14.19s6.35-14.19 14.19-14.19c7.841-.001 14.19 6.355 14.19 14.19z" data-original="#000000" class="active-path" data-old_color="#000000" fill="#881D32"/></svg>