<svg xmlns="http://www.w3.org/2000/svg" width="512" height="512"><path d="M462 386c5.52 0 10-4.48 10-10s-4.48-10-10-10-10 4.48-10 10 4.48 10 10 10zm0 0" data-original="#000000" class="active-path" data-old_color="#89132c" fill="#89132c"/><path d="M30 512h452c16.543 0 30-13.457 30-30V110c0-5.523-4.477-10-10-10h-70C432 44.86 387.14 0 332 0c-55.258 0-100 44.7-100 100h-76c-5.523 0-10 4.477-10 10v116H10c-5.523 0-10 4.477-10 10v246c0 16.543 13.457 30 30 30zm-10-30v-36h232v36c0 5.516-4.484 10-10 10H30c-5.516 0-10-4.484-10-10zm462 10H270.281A29.86 29.86 0 0 0 272 482v-36h220v36c0 5.516-4.484 10-10 10zM332 20c44.113 0 80 35.887 80 80H252c0-44.21 35.762-80 80-80zM166 120h66v46h-10c-5.523 0-10 4.477-10 10s4.477 10 10 10h40c5.523 0 10-4.477 10-10s-4.477-10-10-10h-10v-46h160v46h-10c-5.523 0-10 4.477-10 10s4.477 10 10 10h40c5.523 0 10-4.477 10-10s-4.477-10-10-10h-10v-46h60v306H272V236c0-5.523-4.477-10-10-10h-96zm86 126v180H20V246zm0 0" data-original="#000000" class="active-path" data-old_color="#89132c" fill="#89132c"/><path d="M76 306v20c0 33.148 26.852 60 60 60 33.086 0 60-26.914 60-60v-20c5.523 0 10-4.477 10-10s-4.477-10-10-10h-20c-5.523 0-10 4.477-10 10s4.477 10 10 10v20c0 22.055-17.945 40-40 40-22.094 0-40-17.906-40-40v-20c5.523 0 10-4.477 10-10s-4.477-10-10-10H76c-5.523 0-10 4.477-10 10s4.477 10 10 10zm386 40c5.523 0 10-4.477 10-10v-80c0-5.523-4.477-10-10-10s-10 4.477-10 10v80c0 5.523 4.477 10 10 10zm0 0" data-original="#000000" class="active-path" data-old_color="#89132c" fill="#89132c"/></svg>